<?xml version="1.0" standalone="no"?>
<!DOCTYPE svg PUBLIC "-//W3C//DTD SVG 20010904//EN"
 "http://www.w3.org/TR/2001/REC-SVG-20010904/DTD/svg10.dtd">
<svg version="1.0" xmlns="http://www.w3.org/2000/svg"
 width="401.000000pt" height="104.000000pt" viewBox="0 0 401.000000 104.000000"
 preserveAspectRatio="xMidYMid meet">

<g transform="translate(0.000000,104.000000) scale(0.100000,-0.100000)"
fill="#000000" stroke="none">
<path d="M3330 896 c-295 -80 -454 -127 -452 -134 2 -10 -326 -12 -1414 -12
-779 0 -1419 -1 -1421 -4 -2 -2 20 -93 50 -202 l54 -199 84 -3 c46 -2 88 -7
93 -12 12 -12 46 -13 46 -2 -1 4 -25 94 -54 200 l-53 192 1312 0 1312 0 93
-349 93 -348 56 14 c118 31 837 224 847 227 7 3 -23 132 -87 373 -55 202 -100
371 -102 374 -1 4 -207 -48 -457 -115z"/>
</g>
</svg>
