<?xml version="1.0" standalone="no"?>
<!DOCTYPE svg PUBLIC "-//W3C//DTD SVG 20010904//EN"
 "http://www.w3.org/TR/2001/REC-SVG-20010904/DTD/svg10.dtd">
<svg version="1.0" xmlns="http://www.w3.org/2000/svg"
 width="495.000000pt" height="129.000000pt" viewBox="0 0 495.000000 129.000000"
 preserveAspectRatio="xMidYMid meet">

<g transform="translate(0.000000,129.000000) scale(0.100000,-0.100000)"
fill="#000000" stroke="none">
<path d="M4250 1139 l-475 -128 -1417 0 c-779 -1 -1418 3 -1420 7 -4 11 -908
-230 -908 -243 0 -5 43 -175 97 -376 l98 -366 80 22 c44 12 248 67 452 121
258 68 373 103 373 113 0 10 -63 254 -86 333 -5 17 68 18 1434 18 l1439 0 49
-183 49 -183 452 120 c304 81 453 125 453 134 0 10 -183 704 -193 733 -1 3
-216 -52 -477 -122z"/>
</g>
</svg>
